# xmcd
#
# Track frame offsets:
#	150
#	17480
#	30890
#	52070
#	67445
#	90795
#	112685
#	127157
#	152602
#	177790
#	190815
#	201572
#
# Disc length: 2945 seconds
#
# Revision: 1
# Processed by: cddbd v1.4PL0 Copyright (c) Steve Scherf et al.
# Submitted via: audiograbber 1.80.04
#
DISCID=990b7f0c
DTITLE=Kralle Krawinkel - Kralle
DYEAR=1993
DGENRE=Blues
TTITLE0=Was ich will
TTITLE1=Mir folg'n die Wolken
TTITLE2='n Zentimeter Liebe
TTITLE3=Eisenmann
TTITLE4=2 Rocky Mountains
TTITLE5=Inseln über'm Wind
TTITLE6=Cadillac
TTITLE7=Ich folge Dir
TTITLE8=Meister der Liebe
TTITLE9=Im Lauf' der Nacht
TTITLE10=Trio sein
TTITLE11=Regen in der Stadt
EXTD=www.stephan-remmler.de
EXTT0=
EXTT1=
EXTT2=feat. Nena
EXTT3=
EXTT4=
EXTT5=
EXTT6=
EXTT7=
EXTT8=
EXTT9=
EXTT10=
EXTT11=
PLAYORDER=
